Coordinates
version=1
nRows=24
nColumns=22
inDegrees=yes

Units are S.I. units (second, meters, Newtons, ...)
If the header above contains a line with 'inDegrees', this indicates whether rotational values are in degrees (yes) or radians (no).

endheader
time	pelvis_tilt	pelvis_list	pelvis_rotation	pelvis_tx	pelvis_ty	pelvis_tz	hip_flexion_r	hip_adduction_r	hip_rotation_r	knee_angle_r	ankle_angle_r	subtalar_angle_r	hip_flexion_l	hip_adduction_l	hip_rotation_l	knee_angle_l	ankle_angle_l	subtalar_angle_l	lumbar_extension	lumbar_bending	lumbar_rotation
      0.01000000	     -1.81672543	      2.40362042	    175.12413171	      0.23323260	      0.93057949	      0.94010790	     -3.92784553	     -2.02306494	      1.29612839	     -6.52405674	      5.42078142	      5.76137956	     -3.78470339	     -7.90391422	    -16.68179986	     -9.89826057	      8.86251631	      7.64671552	     -5.80119921	     -0.44123491	      1.46939653
      0.02000000	     -1.81611438	      2.42768596	    175.14975032	      0.23333168	      0.93057411	      0.94005917	     -3.90632127	     -1.99145437	      1.22694111	     -6.56005986	      5.41493053	      5.76258386	     -3.76872777	     -7.93962999	    -16.67441917	     -9.91156583	      8.84718763	      7.66038706	     -5.80424898	     -0.42365983	      1.53300279
      0.03000000	     -1.77649030	      2.46434866	    175.22622351	      0.23345670	      0.93049666	      0.94008205	     -3.82312737	     -1.93873603	      1.09146628	     -6.64852817	      5.43849190	      5.77209022	     -3.69197071	     -7.99854014	    -16.63274943	     -9.93516481	      8.85115291	      7.73968776	     -5.76613493	     -0.38143357	      1.50373921
      0.04000000	     -1.74855865	      2.47792013	    175.29825145	      0.23353877	      0.93043053	      0.94013470	     -3.76833409	     -1.91547177	      0.99626427	     -6.70655758	      5.46367939	      5.77948022	     -3.64358912	     -8.02164490	    -16.57232568	     -9.92985794	      8.84021653	      7.78970919	     -5.73235331	     -0.36447943	      1.52955744
      0.05000000	     -1.72536599	      2.47828988	    175.39165249	      0.23358200	      0.93035918	      0.94022712	     -3.73192781	     -1.90633731	      0.90998513	     -6.74889478	      5.50392559	      5.78751652	     -3.60137204	     -8.02842322	    -16.49546185	     -9.91474633	      8.83704018	      7.83293909	     -5.69768315	     -0.36361568	      1.51984910
      0.06000000	     -1.71650420	      2.47611327	    175.47556038	      0.23356874	      0.93030455	      0.94031982	     -3.72779768	     -1.90246494	      0.86025098	     -6.76282807	      5.53214900	      5.79146147	     -3.58976895	     -8.02664831	    -16.43962995	     -9.88150630	      8.83659208	      7.84717153	     -5.67055887	     -0.36807754	      1.53796212
      0.07000000	     -1.71093159	      2.46104997	    175.58527166	      0.23354987	      0.93025168	      0.94046866	     -3.72250413	     -1.91269876	      0.80266373	     -6.79393597	      5.57349057	      5.79631447	     -3.58737336	     -8.00605119	    -16.34169098	     -9.82019997	      8.83735992	      7.86123985	     -5.64964977	     -0.38171135	      1.47872080
      0.08000000	     -1.71594315	      2.43493811	    175.70511696	      0.23350984	      0.93021792	      0.94063815	     -3.74182073	     -1.93551303	      0.72470122	     -6.80126626	      5.60864701	      5.80163080	     -3.58549419	     -7.97438994	    -16.23621160	     -9.77819809	      8.82058071	      7.86412819	     -5.63952267	     -0.41302593	      1.43957964
      0.09000000	     -1.71828461	      2.41426680	    175.80681544	      0.23344069	      0.93018301	      0.94079205	     -3.76647608	     -1.95415201	      0.68939128	     -6.79333433	      5.64179415	      5.80577546	     -3.59585659	     -7.94568937	    -16.15233919	     -9.71942211	      8.82674684	      7.85903156	     -5.62089911	     -0.43783630	      1.41399439
      0.10000000	     -1.73596121	      2.37992591	    175.92176739	      0.23341136	      0.93017876	      0.94096819	     -3.79592363	     -1.98783955	      0.63648874	     -6.80520121	      5.66628143	      5.81090099	     -3.60698242	     -7.90343831	    -16.04045305	     -9.67875048	      8.81027894	      7.84700046	     -5.62936729	     -0.48138245	      1.35935043
      0.11000000	     -1.75402152	      2.35062656	    176.03018531	      0.23336335	      0.93018320	      0.94114387	     -3.83194616	     -2.01760239	      0.56516767	     -6.80529885	      5.69147840	      5.82011887	     -3.62641942	     -7.86503520	    -15.94354269	     -9.62698006	      8.78810447	      7.82402129	     -5.63562978	     -0.51947556	      1.31363304
      0.12000000	     -1.76782206	      2.32297577	    176.12418545	      0.23333410	      0.93018755	      0.94129625	     -3.86187363	     -2.04592428	      0.51692935	     -6.80265359	      5.70824191	      5.82948566	     -3.63721464	     -7.83097296	    -15.85888654	     -9.58880486	      8.77787096	      7.80589036	     -5.63896204	     -0.55995089	      1.28267573
      0.13000000	     -1.78026646	      2.29818702	    176.21092784	      0.23333007	      0.93019918	      0.94143763	     -3.88402644	     -2.07142893	      0.46050188	     -6.80703722	      5.72014240	      5.83942935	     -3.64231199	     -7.80170730	    -15.77409335	     -9.55990243	      8.76293105	      7.79072633	     -5.64502031	     -0.60038498	      1.26136676
      0.14000000	     -1.79018644	      2.27892974	    176.28707149	      0.23335002	      0.93021299	      0.94157512	     -3.89661546	     -2.09261673	      0.40200519	     -6.81804776	      5.72687192	      5.84956790	     -3.64245774	     -7.77861584	    -15.69936950	     -9.53719968	      8.74787707	      7.77837829	     -5.65303270	     -0.63496526	      1.24703065
      0.15000000	     -1.79815151	      2.26603831	    176.35049810	      0.23338148	      0.93023078	      0.94169109	     -3.90170556	     -2.10664274	      0.34559750	     -6.83512414	      5.72946411	      5.85870082	     -3.63853348	     -7.76378140	    -15.63593559	     -9.52478976	      8.73440954	      7.76914130	     -5.66037084	     -0.66617765	      1.24571305
      0.16000000	     -1.80346063	      2.26450933	    176.38898422	      0.23343490	      0.93024999	      0.94176500	     -3.90196054	     -2.10874979	      0.32532906	     -6.84727328	      5.72660669	      5.86082898	     -3.62937688	     -7.76424606	    -15.60803561	     -9.52858617	      8.72930246	      7.76725436	     -5.67122457	     -0.68934231	      1.27517357
      0.17000000	     -1.81143972	      2.25965905	    176.42827310	      0.23349741	      0.93027630	      0.94185541	     -3.89661261	     -2.11512982	      0.28605219	     -6.87398321	      5.72016400	      5.86284187	     -3.62147066	     -7.75823674	    -15.56400566	     -9.53184868	      8.72292771	      7.76487758	     -5.68738097	     -0.71675659	      1.29715916
      0.18000000	     -1.82124123	      2.25039095	    176.46981165	      0.23353894	      0.93030069	      0.94196000	     -3.89371486	     -2.12693989	      0.24154241	     -6.90243967	      5.72093385	      5.86426866	     -3.61590297	     -7.74716478	    -15.51412223	     -9.53590211	      8.71469982	      7.76051686	     -5.70127004	     -0.74825282	      1.30529503
      0.19000000	     -1.82437792	      2.25372975	    176.49512733	      0.23353568	      0.93031491	      0.94204579	     -3.89631553	     -2.12430092	      0.24356408	     -6.91063013	      5.72083316	      5.86423340	     -3.61403853	     -7.74864092	    -15.51328670	     -9.53227201	      8.71459657	      7.75989930	     -5.70021379	     -0.76461466	      1.31176259
      0.20000000	     -1.84986615	      2.21045452	    176.54833877	      0.23356161	      0.93034914	      0.94221791	     -3.90900421	     -2.17597656	      0.18596205	     -6.94414245	      5.74896491	      5.85683042	     -3.62273317	     -7.69274868	    -15.41824727	     -9.53157624	      8.70028395	      7.74128954	     -5.73203020	     -0.83373776	      1.30025811
      0.21000000	     -1.86337430	      2.20351188	    176.57599078	      0.23358287	      0.93036453	      0.94233637	     -3.91908787	     -2.18547944	      0.19996788	     -6.95546071	      5.75251524	      5.85394232	     -3.61833831	     -7.68230550	    -15.38998099	     -9.55020869	      8.69456287	      7.73600406	     -5.74993453	     -0.86296979	      1.32754020
      0.22000000	     -1.89334456	      2.16048856	    176.60277223	      0.23355397	      0.93039452	      0.94249246	     -3.95253995	     -2.23879579	      0.21565521	     -6.96033104	      5.78298904	      5.83923829	     -3.64848832	     -7.62251780	    -15.34749740	     -9.53593503	      8.68538291	      7.71038779	     -5.77411828	     -0.92989325	      1.33252559
      0.23000000	     -1.92403322	      2.13383235	    176.62201609	      0.23354658	      0.93042543	      0.94262974	     -3.98381170	     -2.27360263	      0.23699372	     -6.96792867	      5.80059327	      5.82550061	     -3.67487838	     -7.58305918	    -15.31725223	     -9.53478390	      8.67180265	      7.68402358	     -5.80479153	     -0.98007646	      1.35876560
      0.24000000	     -1.93719588	      2.12734164	    176.63890098	      0.23355413	      0.93043325	      0.94274739	     -3.99701740	     -2.28419959	      0.25004984	     -6.97254999	      5.80297952	      5.82255805	     -3.67330057	     -7.57154572	    -15.29562514	     -9.55473765	      8.67049987	      7.67938856	     -5.81597894	     -1.00739606	      1.39389226
